# xmcd
#
# Track frame offsets:
#   150
#   31218
#   37903
#   44598
#
# Disc length: 685 seconds
#
# Revision: 0
# Processed by: cddbd v1.5PL3 Copyright (c) Steve Scherf et al.
# Submitted via: Media_Universe 3.0
#
DISCID=2902ab04
DTITLE=Gary Moore - Invitation
DYEAR=1900
DGENRE=Blues
TTITLE0=Stormy Monday
TTITLE1=Enough of the Blues
TTITLE2=Picture of the moon
TTITLE3=Now many lies
EXTD=
EXTT0=
EXTT1=
EXTT2=
EXTT3=
PLAYORDER=
